<?xml version="1.0" standalone="no"?>
<!DOCTYPE svg PUBLIC "-//W3C//DTD SVG 20010904//EN"
 "http://www.w3.org/TR/2001/REC-SVG-20010904/DTD/svg10.dtd">
<svg version="1.0" xmlns="http://www.w3.org/2000/svg"
 width="313.000000pt" height="313.000000pt" viewBox="0 0 313.000000 313.000000"
 preserveAspectRatio="xMidYMid meet">
<metadata>
Created by potrace 1.11, written by Peter Selinger 2001-2013
</metadata>
<g transform="translate(0.000000,313.000000) scale(0.100000,-0.100000)"
fill="#000000" stroke="none">
<path d="M1354 3033 c-6 -2 -9 -27 -6 -66 5 -71 4 -69 24 -62 10 4 13 16 10
35 -2 17 0 30 6 30 13 0 25 -36 17 -50 -3 -5 3 -10 13 -10 17 0 19 5 13 33 -5
25 -12 33 -33 35 -21 3 -28 9 -30 31 -2 15 -8 26 -14 24z"/>
<path d="M1460 3020 c0 -5 5 -10 10 -10 6 0 10 5 10 10 0 6 -4 10 -10 10 -5 0
-10 -4 -10 -10z"/>
<path d="M1862 2944 c-2 -61 -1 -65 23 -74 36 -14 59 1 74 47 7 21 15 44 17
51 3 6 0 12 -8 12 -7 0 -14 -13 -15 -30 -4 -58 -29 -82 -62 -61 -12 8 -13 16
-3 48 16 53 16 56 -5 64 -16 6 -18 -1 -21 -57z"/>
<path d="M1127 2983 c-4 -3 -7 -26 -7 -50 0 -23 -3 -43 -6 -43 -4 0 -21 16
-39 37 -27 31 -34 35 -51 25 -10 -6 -14 -12 -7 -12 14 0 37 -76 29 -96 -3 -8
0 -14 8 -14 22 0 25 10 10 38 -23 44 -16 48 20 13 33 -32 33 -32 40 -9 3 13 6
34 7 48 1 23 2 23 15 -8 8 -18 12 -37 9 -42 -3 -4 4 -6 15 -3 11 3 20 6 20 7
0 0 -9 24 -20 52 -10 29 -16 54 -13 58 4 3 0 6 -9 6 -8 0 -18 -3 -21 -7z"/>
<path d="M1200 2980 c0 -5 5 -10 10 -10 6 0 10 5 10 10 0 6 -4 10 -10 10 -5 0
-10 -4 -10 -10z"/>
<path d="M1459 2988 c0 -1 -1 -20 -2 -41 -2 -30 2 -37 16 -37 15 0 18 7 15 37
-2 20 -9 38 -15 41 -7 2 -13 2 -14 0z"/>
<path d="M1525 2979 c-4 -5 -8 -32 -10 -59 -3 -56 11 -68 53 -47 34 16 35 39
2 47 -25 6 -25 6 -4 18 12 6 24 21 27 32 4 17 0 20 -28 20 -19 0 -37 -5 -40
-11z m35 -19 c0 -11 -4 -20 -10 -20 -5 0 -10 9 -10 20 0 11 5 20 10 20 6 0 10
-9 10 -20z m10 -70 c0 -5 -9 -10 -20 -10 -11 0 -20 5 -20 10 0 6 9 10 20 10
11 0 20 -4 20 -10z"/>
<path d="M1623 2983 c-21 -8 -14 -25 7 -18 29 9 24 -4 -6 -15 -35 -14 -25 -35
18 -37 l35 -2 -6 37 c-6 36 -21 47 -48 35z"/>
<path d="M1704 2957 c-1 -12 -4 -28 -5 -36 -2 -8 4 -17 14 -19 13 -3 17 3 17
27 0 17 5 31 10 31 17 0 23 -29 10 -45 -8 -9 -8 -15 -2 -15 6 0 16 -2 24 -5
10 -4 13 4 10 35 -2 22 -7 40 -11 41 -3 0 -19 2 -36 4 -25 4 -30 1 -31 -18z"/>
<path d="M1272 2958 c-29 -29 4 -76 42 -62 21 8 20 22 -1 20 -12 -1 -19 7 -21
23 -3 18 0 22 12 18 9 -4 16 -2 16 3 0 14 -34 12 -48 -2z"/>
<path d="M1213 2953 c-9 -3 -9 -12 -2 -30 5 -13 7 -29 3 -34 -3 -5 4 -9 16 -9
17 0 19 4 14 28 -9 38 -17 50 -31 45z"/>
<path d="M1993 2898 c0 -7 -3 -23 -7 -34 -4 -14 -2 -23 8 -27 9 -4 16 4 20 24
3 16 10 29 16 29 14 0 12 -48 -2 -52 -8 -3 -5 -9 8 -16 20 -11 22 -9 29 25 7
41 1 50 -41 59 -22 4 -31 2 -31 -8z"/>
<path d="M2120 2895 c0 -8 5 -15 10 -15 6 0 10 7 10 15 0 8 -4 15 -10 15 -5 0
-10 -7 -10 -15z"/>
<path d="M918 2853 c-27 -13 -27 -15 -13 -42 8 -16 11 -32 7 -36 -4 -5 1 -5
11 -2 10 4 21 7 23 7 3 0 -2 13 -11 29 -8 17 -11 32 -6 36 12 7 42 -35 34 -48
-3 -5 4 -4 16 3 l22 11 -21 30 c-24 32 -24 33 -62 12z"/>
<path d="M2094 2845 c-3 -14 -11 -25 -18 -25 -6 0 -2 -7 8 -15 18 -14 21 -12
33 23 16 46 16 42 -2 42 -8 0 -17 -11 -21 -25z"/>
<path d="M2152 2810 c-1 -22 2 -40 8 -40 14 0 67 49 53 50 -7 0 -13 -4 -13
-10 0 -5 -5 -10 -11 -10 -6 0 -9 9 -6 19 4 16 -9 31 -27 31 -2 0 -3 -18 -4
-40z"/>
<path d="M840 2810 c-23 -18 -24 -19 -7 -38 9 -10 17 -24 17 -31 0 -9 5 -9 21
-1 20 11 20 12 2 25 -15 12 -16 17 -6 34 17 28 3 33 -27 11z"/>
<path d="M2226 2774 c-9 -8 -16 -19 -16 -23 0 -13 35 -41 51 -41 11 1 10 4 -3
14 -25 19 -24 40 1 26 27 -14 31 -13 31 9 0 17 -18 31 -40 31 -5 0 -16 -7 -24
-16z"/>
<path d="M775 2766 c-10 -7 -16 -22 -13 -37 2 -19 9 -24 33 -24 22 0 30 5 32
20 2 11 0 14 -3 8 -6 -13 -34 -18 -34 -6 0 3 7 14 15 23 14 15 14 18 1 23 -8
3 -22 0 -31 -7z m15 -10 c0 -3 -4 -8 -10 -11 -5 -3 -10 -1 -10 4 0 6 5 11 10
11 6 0 10 -2 10 -4z"/>
<path d="M2292 2720 c-23 -29 -23 -29 -2 -40 16 -8 20 -8 20 3 0 21 26 41 35
27 3 -6 11 -7 17 -4 7 4 1 14 -13 25 -30 23 -30 24 -57 -11z"/>
<path d="M688 2734 c-11 -10 4 -39 32 -61 24 -20 29 -21 40 -8 10 12 9 15 -3
15 -19 0 -40 33 -29 46 4 5 3 6 -2 2 -5 -4 -14 -3 -21 2 -7 5 -14 7 -17 4z"/>
<path d="M1340 2721 c-139 -31 -259 -80 -363 -149 -32 -21 -57 -28 -124 -33
-50 -4 -93 -13 -108 -23 -55 -36 -79 -112 -52 -165 15 -30 15 -33 -20 -84
-123 -180 -194 -448 -180 -676 11 -173 49 -308 130 -464 60 -116 73 -130 82
-89 4 22 -1 42 -25 81 -101 172 -147 372 -137 590 7 135 27 231 75 355 36 91
118 226 138 226 32 0 83 -30 97 -57 13 -26 29 -86 41 -159 3 -17 0 -37 -7 -44
-9 -10 -9 -11 1 -6 8 5 12 -2 13 -26 0 -18 2 -42 4 -53 2 -11 5 -53 6 -93 2
-76 9 -91 28 -68 8 10 9 16 1 21 -16 10 -12 43 6 53 9 5 26 7 37 4 16 -4 18
-1 13 15 -6 17 -3 20 18 16 13 -3 27 0 30 6 4 6 3 11 -3 11 -10 0 -9 19 2 38
13 19 48 14 54 -8 3 -11 13 -20 23 -20 10 0 20 -7 24 -15 3 -9 12 -12 21 -9
21 8 58 -26 100 -91 39 -61 60 -123 80 -239 15 -87 15 -89 -7 -128 l-23 -39
47 -92 c80 -156 81 -168 15 -183 -47 -9 -48 -12 -31 -45 14 -28 14 -33 0 -48
-9 -10 -13 -26 -9 -40 4 -17 0 -28 -15 -40 -19 -15 -20 -20 -10 -63 22 -93
-38 -128 -193 -112 -98 10 -109 6 -109 -38 0 -24 9 -32 73 -64 288 -146 610
-148 906 -7 65 31 81 34 125 29 169 -20 190 -19 218 4 16 12 46 52 69 90 79
134 131 305 128 424 -1 42 7 90 25 151 23 76 29 115 33 245 8 226 -20 358
-117 555 -28 57 -56 130 -64 172 -24 116 -82 210 -153 244 -39 19 -48 20 -94
9 -50 -12 -50 -12 -153 39 -149 74 -266 102 -441 107 -111 3 -158 0 -225 -15z
m445 -50 c44 -12 118 -40 165 -63 l85 -41 -35 -9 c-56 -14 -970 -23 -970 -10
0 31 240 124 375 145 75 12 301 -1 380 -22z m474 -117 c72 -42 132 -183 134
-314 2 -105 -19 -156 -75 -183 -61 -30 -104 -12 -161 68 -96 133 -164 159
-412 160 -255 0 -262 -6 -276 -235 -8 -143 -15 -183 -26 -152 -3 6 -9 12 -15
12 -6 0 -18 10 -28 23 -11 14 -39 28 -72 36 -29 7 -63 19 -75 27 -12 8 -40 14
-62 14 -27 0 -44 6 -51 18 -11 16 -11 16 -6 0 3 -10 0 -20 -6 -24 -6 -4 -8 -3
-4 4 3 6 1 14 -5 17 -5 4 -8 13 -5 21 3 8 1 14 -4 14 -6 0 -10 -7 -10 -16 0
-9 -6 -14 -12 -11 -7 2 -12 13 -10 23 2 17 2 18 -8 2 -8 -12 -7 -23 2 -37 10
-17 9 -23 -6 -40 -22 -24 -37 -26 -54 -9 -6 6 -28 12 -48 12 -29 1 -38 5 -40
21 -3 19 -2 19 10 2 15 -19 46 -14 46 8 0 19 -27 38 -35 25 -12 -19 -24 -10
-23 20 1 18 5 27 12 23 8 -5 8 -3 0 8 -6 8 -21 46 -32 84 -28 91 -42 110 -99
129 -88 30 -117 88 -76 156 32 55 21 54 668 61 513 5 611 8 674 23 41 9 77 19
80 21 11 11 85 4 110 -11z m-304 -309 c79 -21 121 -51 179 -130 58 -79 92 -99
155 -92 36 4 52 13 78 41 19 20 36 50 40 66 3 17 9 30 12 30 11 0 70 -150 91
-231 50 -190 43 -435 -15 -606 -3 -9 -16 -5 -42 13 -30 20 -46 25 -77 21 -58
-8 -85 -34 -142 -133 -88 -154 -155 -202 -323 -225 -109 -16 -292 -6 -333 18
-39 23 -44 41 -58 207 -12 155 -2 241 31 269 44 36 151 12 190 -43 10 -14 25
-58 33 -99 18 -85 26 -98 71 -107 46 -8 101 12 125 46 62 87 98 305 79 481
-22 217 -68 299 -167 299 -36 0 -50 -6 -76 -32 -28 -28 -35 -46 -49 -123 -21
-116 -31 -125 -138 -125 -120 0 -119 -2 -119 215 0 226 2 229 115 259 38 10
280 -4 340 -19z m-32 -206 c34 -19 54 -50 71 -110 25 -88 37 -207 30 -302 -6
-79 -8 -85 -21 -67 -8 11 -21 20 -29 20 -8 0 -14 6 -14 14 0 8 -8 17 -17 21
-10 3 -20 7 -23 8 -2 1 -19 17 -37 35 -18 17 -35 32 -38 32 -3 0 -14 9 -25 20
-11 11 -29 20 -40 20 -10 0 -24 9 -30 19 -15 29 -13 34 13 28 19 -5 20 -4 5 6
-13 10 -14 17 -5 32 6 11 16 55 23 98 13 80 30 112 69 128 28 11 43 11 68 -2z
m-913 -92 c0 -21 -28 -54 -50 -60 -11 -3 -18 -2 -15 3 2 4 1 21 -4 37 -9 30
-9 31 30 31 24 1 39 -4 39 -11z m1443 -643 c36 -36 51 -86 44 -152 -6 -61 -48
-202 -59 -202 -4 0 -5 6 -2 14 3 8 1 17 -5 21 -6 3 -11 17 -11 31 0 25 -9 41
-42 72 -10 9 -18 21 -18 27 0 20 -75 102 -90 98 -10 -3 -11 -2 -4 4 6 4 14 18
18 31 4 12 19 36 33 52 34 41 98 43 136 4z m-503 -602 c0 -12 -172 -69 -244
-82 -94 -16 -260 -12 -361 9 -101 21 -205 58 -205 72 0 5 163 9 405 9 223 0
405 -4 405 -8z"/>
<path d="M980 2070 c-11 -7 -11 -10 -2 -10 7 0 16 -8 20 -18 6 -16 10 -16 32
-5 15 8 19 13 10 14 -10 0 -8 3 5 9 19 8 19 9 -2 9 -12 1 -25 -4 -28 -9 -4 -6
-11 -7 -17 -4 -6 4 -5 10 3 15 8 5 10 9 4 9 -5 0 -17 -5 -25 -10z"/>
<path d="M1030 1999 c0 -5 5 -7 10 -4 6 3 10 8 10 11 0 2 -4 4 -10 4 -5 0 -10
-5 -10 -11z"/>
<path d="M955 1920 c4 -6 11 -8 16 -5 14 9 11 15 -7 15 -8 0 -12 -5 -9 -10z"/>
<path d="M2364 2685 c-4 -8 -4 -22 0 -30 3 -8 1 -15 -4 -15 -6 0 -10 8 -10 17
0 14 -2 15 -12 4 -11 -10 -9 -15 7 -27 26 -19 40 -13 40 19 -1 15 3 27 7 27 4
0 8 -5 8 -12 0 -6 3 -8 6 -5 8 8 -14 37 -28 37 -5 0 -11 -7 -14 -15z"/>
<path d="M653 2669 c-19 -19 -3 -39 31 -40 29 -1 29 -1 6 -8 -18 -5 -21 -9
-11 -15 18 -11 46 18 37 39 -4 12 -13 15 -31 11 -14 -4 -25 -2 -25 3 0 5 8 12
18 14 13 4 13 5 2 6 -9 0 -21 -4 -27 -10z"/>
<path d="M2460 2660 c0 -5 5 -10 10 -10 6 0 10 5 10 10 0 6 -4 10 -10 10 -5 0
-10 -4 -10 -10z"/>
<path d="M2404 2625 c-15 -16 -18 -27 -12 -39 8 -14 13 -12 34 14 14 16 23 34
19 40 -9 14 -17 11 -41 -15z"/>
<path d="M595 2599 c-4 -11 -4 -23 -1 -26 3 -4 6 1 6 10 0 10 5 17 11 17 7 0
8 -11 4 -30 -6 -26 -4 -30 14 -30 12 0 21 6 21 14 0 8 8 17 17 20 14 6 12 10
-12 26 -38 25 -52 25 -60 -1z"/>
<path d="M2446 2582 c-11 -14 -15 -29 -10 -40 7 -16 7 -16 11 0 5 18 30 31 44
22 5 -3 9 -1 9 5 0 5 3 16 6 25 10 26 -39 16 -60 -12z"/>
<path d="M490 2543 c-11 -19 -18 -38 -15 -41 3 -3 5 -2 5 1 0 8 82 -41 90 -54
3 -4 15 10 27 31 19 31 20 40 9 49 -11 9 -12 6 -9 -13 6 -30 -10 -40 -38 -26
-15 9 -18 15 -10 23 6 6 11 16 11 22 0 5 -7 1 -15 -9 -12 -16 -17 -17 -30 -6
-21 17 -19 29 7 39 17 6 18 9 5 14 -11 4 -22 -5 -37 -30z"/>
<path d="M2492 2514 c-20 -30 -27 -35 -49 -29 -18 4 -24 2 -20 -7 2 -7 13 -12
23 -11 10 1 40 3 66 5 27 2 48 6 48 9 0 14 -14 18 -31 8 -23 -12 -27 6 -4 18
12 7 13 12 3 26 -12 15 -15 13 -36 -19z"/>
<path d="M725 2010 c-4 -6 -3 -16 3 -22 6 -6 12 -6 17 2 4 6 3 16 -3 22 -6 6
-12 6 -17 -2z"/>
<path d="M1055 1931 c-7 -12 12 -24 25 -16 11 7 4 25 -10 25 -5 0 -11 -4 -15
-9z"/>
<path d="M1054 1874 c7 -19 -19 -60 -29 -45 -3 6 -11 11 -17 11 -7 0 -6 -5 1
-14 9 -11 9 -16 0 -22 -8 -5 -9 -3 -4 6 5 7 -3 5 -17 -6 -21 -16 -23 -20 -11
-29 16 -12 25 -75 11 -75 -4 0 -7 -6 -5 -12 1 -7 -5 -12 -13 -10 -8 1 -4 -6 9
-16 l24 -19 -26 0 c-14 0 -28 6 -31 13 -8 21 -33 17 -39 -5 -3 -11 -2 -23 2
-26 3 -4 6 -20 7 -36 0 -22 7 -34 25 -42 33 -17 39 -71 10 -87 -26 -13 -27
-44 -2 -69 14 -14 16 -22 8 -31 -9 -10 -8 -12 6 -6 10 3 21 6 23 6 3 0 2 4 -1
10 -3 5 0 7 9 4 11 -4 13 2 9 34 -3 25 0 50 11 70 30 59 119 51 148 -14 11
-24 28 -33 28 -14 0 5 6 7 14 4 8 -3 29 8 47 25 31 30 31 33 18 59 -8 15 -18
30 -24 34 -6 5 -2 8 8 8 9 0 17 -7 17 -15 0 -8 5 -15 11 -15 6 0 2 15 -9 34
-12 20 -18 44 -15 55 4 15 1 21 -10 21 -9 0 -18 13 -22 30 -6 26 -9 29 -22 19
-11 -10 -19 -10 -33 -1 -16 10 -20 8 -25 -8 -9 -29 -40 -43 -66 -30 -15 9 -20
20 -19 48 3 52 2 54 -18 43 -15 -8 -18 -5 -20 15 -1 14 6 27 17 34 27 14 31
13 24 -6 -3 -8 -12 -13 -19 -10 -8 3 -14 1 -14 -4 0 -6 9 -10 20 -10 11 0 20
-5 20 -11 0 -7 10 -9 25 -7 18 4 32 -3 52 -23 30 -30 48 -36 58 -19 10 16 -14
40 -33 34 -15 -5 -15 -4 1 9 14 12 15 16 4 25 -10 8 -17 8 -24 1 -6 -6 -20 -8
-32 -4 -27 8 -28 45 -1 52 26 7 26 23 0 23 -11 0 -23 7 -26 15 -4 8 -15 15
-26 15 -14 0 -18 -5 -14 -16z m-6 -156 c-3 -7 -13 -13 -23 -13 -10 0 -20 6
-22 13 -3 7 5 12 22 12 17 0 25 -5 23 -12z m44 -81 c13 -21 9 -42 -13 -55 -18
-11 -24 -11 -41 5 -12 11 -18 26 -15 40 2 12 -1 24 -7 27 -6 2 7 2 29 0 21 -2
43 -10 47 -17z m126 11 c31 -31 -2 -95 -42 -83 -12 4 -26 7 -32 7 -12 2 -6 57
8 76 13 15 50 16 66 0z m-218 -53 c-9 -11 -9 -15 -1 -15 13 0 15 -36 3 -44 -4
-2 -14 -1 -22 5 -13 7 -12 9 3 9 9 0 17 4 17 10 0 5 -6 7 -13 4 -8 -3 -14 2
-14 12 0 21 30 59 35 44 2 -6 -2 -17 -8 -25z m147 -62 c12 -8 24 -21 28 -30 3
-9 -6 -4 -21 10 -15 15 -33 27 -40 27 -7 0 -16 4 -19 10 -7 12 21 2 52 -17z
m-97 6 c-13 -6 -32 -15 -40 -22 -9 -7 -5 -2 8 11 13 12 31 22 40 21 11 0 9 -4
-8 -10z m200 -9 c0 -4 -10 -10 -21 -13 -16 -4 -20 -11 -16 -26 3 -14 0 -19
-12 -18 -21 1 -16 46 5 54 8 3 12 9 9 13 -3 5 4 6 15 3 11 -3 20 -9 20 -13z
m-9 -27 c-11 -5 -11 -7 0 -15 12 -8 12 -9 0 -6 -22 6 -25 28 -4 27 12 0 14 -2
4 -6z"/>
<path d="M1175 1620 c-8 -13 4 -32 16 -25 12 8 12 35 0 35 -6 0 -13 -4 -16
-10z"/>
<path d="M1016 1865 c-3 -9 0 -15 9 -15 8 0 15 7 15 15 0 8 -4 15 -9 15 -5 0
-11 -7 -15 -15z"/>
<path d="M679 1843 c-13 -17 -13 -17 6 -3 11 8 22 16 24 17 2 2 0 3 -6 3 -6 0
-17 -8 -24 -17z"/>
<path d="M717 1823 c-12 -11 -8 -23 8 -23 8 0 15 7 15 15 0 16 -12 20 -23 8z"/>
<path d="M1120 1810 c0 -5 7 -10 16 -10 8 0 12 5 9 10 -3 6 -10 10 -16 10 -5
0 -9 -4 -9 -10z"/>
<path d="M1210 1755 c7 -8 16 -12 21 -9 13 8 1 24 -18 24 -13 0 -13 -3 -3 -15z"/>
<path d="M923 1753 c-19 -7 -16 -23 5 -20 9 1 17 -2 17 -8 0 -5 -8 -9 -18 -7
-11 1 -17 -3 -15 -10 3 -7 14 -14 25 -16 26 -4 41 32 23 53 -13 16 -17 17 -37
8z"/>
<path d="M720 1720 c-26 -26 -25 -64 2 -90 28 -26 44 -25 73 5 28 27 30 37 14
68 -23 42 -57 49 -89 17z m68 -12 c16 -16 15 -53 -3 -68 -19 -16 -45 -10 -61
15 -26 39 31 86 64 53z"/>
<path d="M1090 1715 c0 -9 5 -15 11 -13 6 2 11 8 11 13 0 5 -5 11 -11 13 -6 2
-11 -4 -11 -13z"/>
<path d="M1250 1710 c0 -5 5 -10 11 -10 5 0 7 5 4 10 -3 6 -8 10 -11 10 -2 0
-4 -4 -4 -10z"/>
<path d="M920 1506 c0 -14 5 -26 10 -26 6 0 10 9 10 19 0 11 -4 23 -10 26 -6
4 -10 -5 -10 -19z"/>
<path d="M830 1494 c0 -17 22 -14 28 4 2 7 -3 12 -12 12 -9 0 -16 -7 -16 -16z"/>
<path d="M1070 1483 c-33 -12 -58 -83 -29 -83 6 0 8 7 5 16 -15 39 41 73 72
42 9 -9 12 -9 12 0 0 9 -32 34 -42 31 -2 0 -10 -3 -18 -6z"/>
<path d="M1075 1450 c-3 -5 1 -10 10 -10 9 0 13 5 10 10 -3 6 -8 10 -10 10 -2
0 -7 -4 -10 -10z"/>
<path d="M805 1419 c-4 -6 -5 -12 -2 -15 2 -3 7 2 10 11 7 17 1 20 -8 4z"/>
<path d="M844 544 c-6 -3 -9 -15 -7 -28 4 -19 -1 -25 -22 -30 -21 -5 -26 -12
-23 -34 3 -28 23 -38 61 -28 20 5 22 10 19 66 -4 59 -6 63 -28 54z m-4 -89 c0
-25 -14 -34 -24 -16 -8 12 3 41 15 41 5 0 9 -11 9 -25z"/>
<path d="M1324 544 c-6 -3 -9 -15 -7 -28 4 -19 -1 -25 -22 -30 -21 -5 -26 -12
-23 -34 3 -28 23 -38 61 -28 20 5 22 10 19 66 -4 59 -6 63 -28 54z m-4 -89 c0
-25 -14 -34 -24 -16 -8 12 3 41 15 41 5 0 9 -11 9 -25z"/>
<path d="M569 493 c4 -58 15 -73 50 -73 38 0 51 17 51 66 0 25 5 44 13 47 6 3
-1 6 -18 6 -20 0 -25 -2 -17 -8 9 -5 12 -24 10 -52 -3 -39 -6 -44 -28 -44 -23
0 -25 3 -25 53 0 45 -3 52 -20 52 -18 0 -20 -5 -16 -47z"/>
<path d="M1742 524 c-29 -20 -31 -79 -3 -94 30 -16 81 -13 81 5 0 12 -4 13
-19 4 -31 -20 -51 -4 -51 40 0 31 4 41 20 46 12 4 27 1 35 -5 12 -10 15 -9 15
4 0 21 -48 21 -78 0z"/>
<path d="M2047 533 c-4 -3 -7 -15 -7 -25 0 -10 -5 -18 -11 -18 -8 0 -8 -5 1
-15 13 -16 7 -45 -9 -45 -5 0 -11 12 -13 28 -2 22 -8 27 -33 28 -16 1 -37 -2
-46 -7 -9 -5 -20 -4 -26 2 -6 6 -21 9 -34 7 -19 -2 -24 -9 -24 -33 0 -27 3
-30 30 -30 22 0 33 6 40 23 5 12 13 22 17 22 13 0 9 -38 -4 -43 -7 -3 -2 -6
12 -6 20 -1 26 4 25 22 0 12 5 23 10 24 6 1 9 -9 8 -23 -2 -22 2 -24 41 -24
41 0 43 1 38 26 -3 16 1 30 9 35 10 6 10 9 2 9 -7 0 -13 9 -13 21 0 16 4 19
21 14 15 -5 19 -4 15 4 -8 12 -39 15 -49 4z m-157 -78 c0 -26 -14 -33 -25 -15
-9 14 1 40 15 40 5 0 10 -11 10 -25z"/>
<path d="M1552 503 c-5 -10 -6 -31 -3 -48 5 -23 12 -31 31 -32 14 -1 19 0 13
3 -7 3 -13 16 -13 29 0 13 6 26 13 28 10 4 10 6 0 6 -7 1 -13 8 -13 16 0 20
-17 19 -28 -2z"/>
<path d="M689 479 c-10 -6 -10 -9 -1 -9 6 0 12 -9 12 -19 0 -11 -6 -22 -12
-24 -7 -3 -2 -6 12 -6 20 -1 26 4 25 22 0 12 5 23 10 24 6 1 9 -9 8 -23 -1
-17 3 -24 16 -24 15 0 17 5 12 33 -6 27 -11 32 -37 34 -17 0 -37 -3 -45 -8z"/>
<path d="M902 481 c-8 -4 -12 -19 -10 -32 3 -22 8 -24 59 -26 55 -2 56 -2 51
22 -2 14 0 25 6 25 17 0 29 -32 25 -67 -2 -30 0 -33 25 -33 15 0 33 4 41 9 22
14 5 41 -26 42 -28 0 -28 0 -5 10 13 5 26 18 29 28 3 12 11 17 19 14 17 -6 18
-40 2 -46 -7 -3 -1 -6 13 -6 23 -1 26 2 21 26 -4 21 -2 25 12 20 10 -4 16 -1
16 7 0 15 -184 19 -212 4 -12 -5 -18 -5 -18 2 0 12 -30 13 -48 1z m173 -30
c-9 -16 -25 -3 -18 15 4 10 9 12 15 6 6 -6 7 -15 3 -21z m-95 0 c0 -15 -7 -19
-32 -18 -40 2 -48 24 -11 30 15 2 31 5 36 6 4 0 7 -8 7 -18z m110 -61 c0 -5
-9 -10 -20 -10 -11 0 -20 5 -20 10 0 6 9 10 20 10 11 0 20 -4 20 -10z"/>
<path d="M1195 480 c-5 -9 -1 -10 14 -5 11 3 21 2 21 -3 0 -5 -9 -12 -20 -15
-35 -9 -24 -37 14 -37 32 0 33 1 27 33 -7 33 -42 50 -56 27z m35 -40 c0 -5 -4
-10 -10 -10 -5 0 -10 5 -10 10 0 6 5 10 10 10 6 0 10 -4 10 -10z"/>
<path d="M1369 458 c6 -30 10 -33 47 -36 l40 -3 -4 36 c-3 25 -9 35 -21 35
-14 0 -17 -7 -13 -30 3 -18 0 -30 -7 -30 -6 0 -11 14 -11 30 0 23 -5 30 -19
30 -16 0 -17 -5 -12 -32z"/>
<path d="M1474 479 c-5 -9 -2 -10 9 -6 9 3 19 2 22 -2 2 -5 -4 -11 -15 -14
-35 -9 -24 -37 14 -37 32 0 33 1 27 33 -7 34 -42 50 -57 26z m36 -39 c0 -5 -4
-10 -10 -10 -5 0 -10 5 -10 10 0 6 5 10 10 10 6 0 10 -4 10 -10z"/>
<path d="M1622 481 c-22 -14 -10 -56 17 -59 13 -2 27 0 32 5 6 6 1 9 -12 9
-12 -1 -24 5 -26 12 -3 7 5 12 21 12 18 0 24 4 20 15 -7 16 -31 19 -52 6z"/>
<path d="M2102 481 c-8 -4 -12 -19 -10 -32 3 -22 8 -24 59 -26 56 -2 56 -2 51
24 -4 21 -2 25 12 20 10 -4 16 -1 16 8 0 15 -45 16 -69 1 -6 -4 -11 -2 -11 3
0 13 -30 14 -48 2z m78 -30 c0 -15 -7 -19 -32 -18 -40 2 -48 24 -11 30 15 2
31 5 36 6 4 0 7 -8 7 -18z"/>
<path d="M2249 480 c-6 -4 -9 -18 -7 -31 3 -21 9 -24 55 -27 44 -3 52 -1 47
12 -3 9 -3 24 0 33 6 15 8 15 16 3 5 -8 7 -23 4 -32 -4 -13 0 -18 14 -18 17 0
19 5 13 33 -7 32 -7 32 -69 33 -33 0 -66 -2 -73 -6z m38 -6 c-3 -3 -12 -4 -19
-1 -8 3 -5 6 6 6 11 1 17 -2 13 -5z m33 -23 c0 -13 -7 -18 -27 -17 -36 1 -41
24 -6 29 15 2 29 5 31 6 1 0 2 -7 2 -18z"/>
<path d="M2420 475 c-20 -24 -8 -50 25 -52 28 -3 29 -2 7 7 -31 13 -25 46 6
43 14 -2 21 1 17 7 -9 15 -41 12 -55 -5z"/>
<path d="M2502 481 c-22 -14 -10 -56 17 -59 13 -2 27 0 32 5 6 6 1 9 -12 9
-12 -1 -24 5 -26 12 -3 7 5 12 21 12 18 0 24 4 20 15 -7 16 -31 19 -52 6z"/>
<path d="M1447 253 c-4 -4 -29 -6 -55 -4 l-47 2 0 -61 c0 -54 2 -60 21 -60 17
0 20 5 16 25 -3 18 0 25 11 25 22 0 47 28 41 45 -4 8 -1 15 5 15 15 0 14 -83
-1 -98 -9 -9 -7 -12 13 -12 21 0 24 4 22 32 -1 18 -2 48 -2 66 -1 31 -10 40
-24 25z m-42 -38 c0 -10 -6 -20 -12 -22 -8 -3 -13 5 -13 22 0 17 5 25 13 23 6
-3 12 -13 12 -23z"/>
<path d="M1595 254 c-6 -2 -8 -28 -7 -59 3 -35 0 -55 -7 -55 -6 0 -11 14 -11
30 0 32 -6 36 -30 20 -10 -6 -11 -10 -2 -10 6 0 12 -9 12 -20 0 -31 -28 -24
-32 7 -2 18 -10 29 -23 32 -17 3 -17 1 -6 -12 7 -9 10 -25 6 -37 -6 -19 -2
-20 62 -20 l68 0 -3 65 c-4 63 -6 68 -27 59z"/>
<path d="M1990 250 c-10 -6 -11 -10 -2 -10 16 0 16 -82 0 -98 -9 -9 -6 -12 13
-12 19 0 25 5 24 23 0 12 5 23 10 24 6 1 9 -9 8 -23 -1 -17 3 -24 16 -24 29 0
13 64 -17 68 -17 3 -22 10 -22 33 0 31 -6 35 -30 19z"/>
<path d="M1156 231 c-4 -5 -2 -12 3 -15 5 -4 12 -2 15 3 4 5 2 12 -3 15 -5 4
-12 2 -15 -3z"/>
<path d="M1546 231 c-4 -5 -2 -12 3 -15 5 -4 12 -2 15 3 4 5 2 12 -3 15 -5 4
-12 2 -15 -3z"/>
<path d="M1150 190 c-10 -6 -11 -10 -2 -10 6 0 12 -9 12 -19 0 -11 -6 -22 -12
-24 -7 -3 10 -6 37 -6 46 -1 51 1 50 22 0 12 5 23 10 24 6 1 9 -9 8 -23 -1
-17 3 -24 16 -24 15 0 17 5 12 33 -6 27 -11 32 -36 33 -17 1 -37 -2 -45 -7
-10 -5 -11 -8 -2 -9 17 0 15 -40 -3 -40 -10 0 -15 10 -15 30 0 32 -6 36 -30
20z"/>
<path d="M1654 186 c-12 -31 0 -51 30 -51 36 0 56 26 37 49 -17 20 -60 21 -67
2z m46 -27 c0 -20 -15 -26 -25 -9 -9 15 3 43 15 35 5 -3 10 -15 10 -26z"/>
<path d="M1743 185 c-3 -9 3 -23 13 -31 17 -14 17 -15 2 -10 -10 3 -18 1 -18
-4 0 -5 28 -8 63 -7 54 2 63 5 72 25 5 12 13 22 17 22 14 0 9 -88 -4 -93 -7
-3 3 -5 22 -5 19 0 29 2 23 5 -22 8 -15 41 8 45 12 2 27 10 32 20 23 36 -36
63 -83 38 -13 -7 -21 -7 -25 0 -11 18 -55 11 -63 -10 -7 -19 -9 -19 -27 -4
-17 13 -17 15 -2 10 9 -3 17 -1 17 4 0 16 -40 11 -47 -5z m107 -20 c0 -26 -14
-33 -25 -15 -9 14 1 40 15 40 5 0 10 -11 10 -25z m97 -9 c-4 -9 -11 -16 -17
-16 -11 0 -14 33 -3 44 11 10 26 -11 20 -28z"/>
<path d="M2103 160 c21 -39 21 -42 5 -54 -22 -16 -23 -26 -4 -26 7 0 24 24 36
53 12 28 28 55 34 59 6 5 2 8 -10 8 -12 0 -21 -6 -20 -12 0 -7 -3 -13 -9 -13
-5 0 -9 6 -9 13 1 6 -9 12 -21 12 l-23 0 21 -40z"/>
</g>
</svg>
